<?xml version="1.0" standalone="no"?>
<!DOCTYPE svg PUBLIC "-//W3C//DTD SVG 20010904//EN"
 "http://www.w3.org/TR/2001/REC-SVG-20010904/DTD/svg10.dtd">
<svg version="1.0" xmlns="http://www.w3.org/2000/svg"
 width="800.000000pt" height="800.000000pt" viewBox="0 0 800.000000 800.000000"
 preserveAspectRatio="xMidYMid meet">
<metadata>
Created by potrace 1.11, written by Peter Selinger 2001-2013
</metadata>
<g transform="translate(0.000000,800.000000) scale(0.100000,-0.100000)"
fill="#000000" stroke="none">
<path d="M3778 7920 c-202 -9 -368 -31 -451 -59 -29 -10 -74 -21 -102 -25 -27
-4 -84 -16 -125 -26 -41 -10 -118 -26 -170 -36 -131 -23 -452 -134 -545 -188
-22 -13 -103 -52 -180 -86 -165 -73 -363 -181 -508 -279 -96 -64 -117 -85
-279 -273 -294 -343 -442 -537 -615 -808 -180 -281 -217 -359 -367 -774 -37
-100 -54 -173 -91 -382 -72 -416 -86 -526 -84 -659 1 -82 -3 -142 -14 -190
-12 -48 -17 -118 -17 -225 0 -351 84 -764 232 -1135 22 -55 80 -203 128 -330
96 -252 159 -389 272 -595 l75 -134 -121 -66 c-185 -101 -306 -180 -318 -205
-13 -30 -4 -55 22 -62 11 -3 20 -8 20 -12 0 -3 1 -62 3 -131 l2 -126 57 -114
c32 -63 88 -162 125 -220 88 -139 125 -208 162 -306 17 -45 40 -89 51 -99 18
-16 21 -17 45 -1 19 12 25 25 25 51 0 38 -6 41 -45 23 -33 -15 -41 -4 -94 122
-104 250 -126 302 -196 447 -73 151 -75 158 -75 231 0 67 2 73 17 67 39 -16
65 -17 104 -1 23 9 43 16 44 14 1 -2 12 -34 23 -73 25 -82 87 -213 170 -357
105 -182 125 -227 117 -266 -3 -19 -8 -57 -11 -85 -2 -28 -11 -58 -19 -67 -23
-25 -18 -59 18 -125 46 -86 63 -82 93 19 33 117 49 125 49 25 0 -82 10 -104
42 -92 12 5 13 25 7 108 l-7 103 44 28 c85 54 246 113 473 174 226 60 464 135
396 124 -86 -13 -501 -95 -554 -109 -32 -9 -60 -14 -62 -12 -4 4 427 133 636
191 186 52 510 132 667 165 394 84 987 129 1728 132 362 2 506 9 444 22 -92
19 -349 38 -605 44 l-281 6 12 23 c8 17 9 42 3 86 -17 126 -47 446 -54 576 -5
102 -11 138 -24 154 -14 17 -20 19 -37 9 -32 -16 -37 -43 -35 -181 l1 -126
-53 -10 -54 -9 -6 44 c-3 24 -6 83 -6 130 0 54 -5 92 -12 99 -20 20 -46 14
-65 -15 -15 -23 -18 -48 -16 -163 3 -248 31 -526 59 -568 18 -27 59 -29 74 -3
13 25 13 114 0 106 -13 -8 -18 22 -25 161 l-6 121 59 15 58 15 18 -147 c21
-181 41 -278 61 -300 14 -16 -2 -17 -247 -23 -627 -16 -1044 -81 -1698 -267
-113 -31 -252 -67 -310 -79 -147 -31 -407 -98 -492 -127 l-72 -24 -23 22 c-12
12 -41 50 -64 84 -36 56 -44 79 -70 212 -16 83 -35 193 -43 245 l-13 96 134
93 c104 72 135 99 140 120 5 23 17 31 92 58 197 71 724 221 736 209 2 -3 9
-46 15 -97 7 -51 27 -161 46 -244 18 -84 32 -153 30 -155 -2 -2 -46 81 -98
184 -72 142 -100 189 -115 191 -28 4 -56 -26 -48 -52 14 -50 65 -301 62 -310
-3 -10 -58 153 -77 231 -22 89 -98 55 -86 -39 10 -70 51 -190 100 -289 76
-153 123 -197 174 -163 23 15 24 20 19 88 -3 39 -9 82 -13 96 -3 14 12 -4 36
-40 23 -36 54 -77 68 -92 34 -36 75 -37 98 -3 22 33 16 84 -31 275 -40 163
-75 353 -75 410 0 38 1 38 50 49 70 15 73 14 59 -10 -6 -12 -9 -31 -7 -44 3
-14 -2 -26 -14 -34 -10 -6 -18 -22 -18 -34 0 -13 25 -96 55 -185 30 -89 55
-179 55 -200 0 -21 7 -62 15 -90 12 -41 21 -53 40 -58 14 -3 32 -1 39 5 11 10
16 8 21 -8 14 -45 77 -36 189 27 27 15 54 35 60 44 27 44 -53 55 -138 18 -27
-11 -57 -18 -66 -15 -9 3 -23 -2 -30 -10 -11 -14 -19 6 -51 132 -20 81 -40
155 -44 164 -5 13 7 21 50 39 l57 23 -22 21 c-15 16 -33 21 -70 21 -48 0 -50
1 -65 38 -8 20 -15 42 -15 47 0 20 36 52 85 77 71 36 76 42 64 64 -5 10 -8 19
-7 19 2 0 41 7 88 15 107 19 120 19 120 -1 0 -12 7 -14 30 -9 21 5 39 2 55 -9
32 -21 65 -86 65 -129 0 -30 -4 -35 -27 -40 -16 -3 -35 -8 -44 -12 -14 -5 -20
7 -34 64 -19 77 -33 96 -64 86 -25 -8 -35 -43 -27 -93 14 -81 152 -522 172
-551 18 -25 46 -27 69 -5 19 20 18 28 -41 217 -24 78 -44 147 -44 153 0 6 11
16 25 22 29 13 29 14 75 -104 88 -222 178 -312 293 -290 40 7 102 57 123 98
25 49 7 54 -85 23 -79 -26 -83 -26 -108 -10 -47 31 -71 67 -146 216 -62 124
-72 150 -65 175 16 56 -16 157 -66 206 l-28 27 24 5 c12 3 57 8 98 11 41 4
134 15 205 25 455 65 819 85 1044 55 91 -12 156 -14 301 -8 l185 8 -140 24
c-246 40 -454 48 -801 27 -609 -35 -749 -49 -1049 -102 -76 -14 -149 -23 -161
-20 -12 3 -76 -3 -141 -14 -115 -20 -630 -132 -786 -171 -43 -11 -82 -17 -86
-15 -5 3 -14 19 -21 35 -6 16 -20 31 -30 34 -33 9 -188 244 -250 382 -63 139
-220 655 -259 850 -53 268 -86 661 -70 855 5 63 13 178 19 255 31 472 89 712
249 1030 104 204 215 381 377 598 259 346 472 560 646 648 32 16 63 39 70 51
11 21 13 17 20 -40 26 -225 295 -352 568 -267 30 9 88 30 129 46 41 16 76 27
79 25 2 -3 -1 -39 -6 -82 -8 -55 -22 -100 -50 -158 -22 -45 -49 -107 -60 -139
-24 -68 -62 -117 -160 -211 -90 -86 -115 -131 -116 -209 -1 -54 2 -61 31 -87
l32 -29 -19 -45 c-11 -24 -23 -64 -26 -88 l-6 -44 -73 -13 c-73 -12 -148 -37
-215 -71 -93 -47 -254 -228 -321 -362 -40 -79 -51 -91 -124 -145 -156 -116
-200 -158 -267 -259 -76 -113 -206 -279 -237 -301 -62 -43 -99 -217 -70 -328
5 -22 15 -58 20 -79 5 -21 18 -51 29 -66 10 -15 28 -50 40 -79 28 -71 53 -120
117 -228 47 -80 67 -102 150 -169 116 -93 307 -286 410 -412 41 -52 81 -96 89
-99 7 -2 31 -36 54 -73 22 -38 65 -100 95 -137 30 -37 55 -73 55 -79 0 -5 12
-22 28 -37 22 -21 38 -27 77 -27 28 -1 73 -2 101 -3 46 -2 56 2 99 37 l48 40
-7 -35 c-4 -19 -6 -46 -6 -61 0 -14 -4 -38 -10 -53 -16 -41 -3 -88 28 -106 25
-14 30 -13 72 8 25 12 80 28 122 35 l77 11 -47 48 c-116 117 -148 158 -156
201 -2 14 -10 36 -16 48 -7 12 -13 47 -15 79 -1 31 -5 67 -9 81 -4 14 -2 56 3
94 17 121 69 141 102 40 12 -33 27 -56 50 -72 l34 -23 3 36 c3 37 17 44 46 22
15 -11 63 -132 85 -215 17 -61 21 -46 21 70 0 106 2 118 25 152 14 20 25 43
25 50 0 17 22 26 63 26 42 0 77 10 77 21 0 5 -15 9 -33 9 -46 0 -129 44 -170
89 -42 47 -97 194 -99 265 -1 38 6 64 25 101 l27 50 -82 7 c-46 4 -99 10 -118
14 -31 6 -32 7 -15 15 57 26 351 93 430 99 103 8 194 42 241 91 29 31 28 47
-3 30 -16 -10 -333 -81 -428 -96 -22 -4 -98 -20 -170 -37 l-129 -30 -94 28
c-89 26 -99 32 -161 94 -60 58 -129 156 -183 261 -18 35 -18 37 -1 70 10 19
19 35 19 37 1 2 29 -6 63 -18 33 -11 71 -20 83 -20 13 0 54 -16 92 -35 63 -32
116 -45 116 -28 0 3 -8 15 -18 26 -17 19 -16 19 17 12 24 -5 32 -4 26 4 -8 14
-205 113 -258 131 -54 17 -84 67 -93 152 -6 60 -4 71 19 110 36 60 116 147
190 206 67 54 87 60 260 82 77 9 183 -1 317 -31 47 -11 140 -67 162 -98 7 -10
28 -26 46 -35 51 -26 147 -122 167 -166 10 -22 21 -40 24 -40 7 1 71 86 71 95
0 3 -6 5 -14 5 -8 0 -35 20 -60 45 -26 25 -56 45 -68 45 -14 0 -46 27 -90 75
-53 57 -86 83 -143 111 -71 35 -79 37 -220 44 -81 5 -163 7 -183 4 -29 -3 -31
-2 -12 4 41 13 6 25 -50 17 -145 -20 -374 -205 -445 -358 -13 -27 -29 -54 -38
-60 -12 -10 -13 -29 -8 -102 6 -74 4 -95 -9 -120 -19 -34 -77 -60 -157 -70
-45 -6 -49 -5 -65 22 -28 48 -106 115 -130 111 -12 -2 -23 -8 -25 -13 -2 -6
24 -47 57 -90 68 -90 130 -205 130 -241 0 -43 91 -301 127 -361 40 -66 68
-131 60 -139 -10 -10 21 -83 58 -138 42 -64 124 -146 145 -146 9 0 26 -8 40
-17 22 -16 24 -16 38 5 14 21 14 21 64 -18 l50 -40 4 -110 4 -110 -29 0 c-39
0 -55 -22 -48 -66 5 -27 1 -40 -14 -55 -23 -23 -31 -24 -72 -3 -60 31 -162
123 -370 333 -115 117 -221 218 -237 226 -15 8 -87 77 -161 153 -101 105 -159
176 -234 288 -91 134 -103 157 -119 230 -14 59 -17 108 -14 181 3 92 6 104 33
144 17 23 60 65 96 91 64 47 113 106 172 209 42 74 106 149 126 149 10 0 41
-7 67 -15 27 -8 68 -19 91 -25 24 -6 72 -33 108 -60 36 -27 65 -46 65 -42 0 4
-10 23 -21 42 -24 39 -34 113 -34 265 0 100 0 100 49 200 57 114 134 198 221
240 50 25 222 65 276 65 24 0 29 -4 29 -25 0 -26 15 -34 23 -12 3 8 10 7 26
-7 23 -20 76 -25 143 -12 32 6 37 4 44 -16 4 -13 8 -37 9 -54 2 -29 -1 -32
-35 -38 -42 -7 -127 -60 -135 -85 -3 -9 -29 -27 -58 -39 -63 -27 -140 -82
-163 -117 -16 -24 -16 -27 -1 -43 16 -15 21 -13 78 27 82 58 141 73 252 65 88
-7 89 -7 157 -60 109 -84 118 -87 267 -93 130 -6 131 -6 173 -40 23 -18 54
-35 71 -38 27 -4 29 -2 29 27 0 18 -11 55 -25 82 -14 28 -23 53 -20 56 3 3 5
2 5 -1 0 -4 16 2 36 14 l36 20 45 -37 c25 -21 51 -52 59 -69 7 -18 20 -35 28
-38 12 -5 11 -16 -10 -74 -25 -72 -30 -103 -15 -103 5 0 25 7 45 15 30 13 42
27 71 89 24 50 47 82 72 102 21 15 55 47 77 71 36 41 87 79 72 54 -4 -6 -4
-11 1 -11 4 1 26 24 48 52 103 130 204 211 336 267 27 12 49 23 49 24 0 1 -11
24 -25 51 -14 28 -22 53 -18 57 5 3 27 9 50 12 l43 5 11 -41 c17 -66 55 -131
93 -165 20 -17 36 -33 36 -35 0 -2 -18 -9 -39 -16 -52 -15 -360 -174 -431
-221 -30 -21 -66 -41 -80 -45 -33 -10 -50 -24 -50 -41 0 -19 24 -17 90 6 34
11 60 15 70 10 11 -6 35 5 82 35 76 51 183 110 215 119 16 5 23 2 28 -14 8
-25 49 -27 102 -5 27 11 39 12 49 4 8 -6 26 -9 40 -6 14 2 38 -1 52 -9 35 -17
101 -4 164 31 60 33 74 50 59 69 -9 11 -9 20 1 38 7 13 17 26 22 29 4 4 5 16
1 28 -3 12 -2 21 4 21 14 0 71 50 71 62 0 10 -56 6 -97 -8 -10 -3 4 13 30 37
50 45 110 61 121 32 9 -22 37 -15 77 22 45 40 54 41 294 25 139 -9 141 -9 235
-56 111 -54 160 -91 192 -142 39 -64 126 -181 130 -177 12 12 283 -290 332
-370 30 -49 67 -84 136 -130 69 -46 130 -111 204 -217 87 -124 105 -201 67
-276 -10 -20 -30 -86 -44 -145 -31 -128 -101 -282 -144 -318 -16 -13 -79 -67
-138 -119 -97 -85 -105 -95 -84 -100 23 -6 22 -7 -16 -33 -27 -18 -34 -27 -21
-27 13 0 -5 -25 -63 -89 -82 -89 -116 -112 -193 -126 -20 -4 -47 -18 -60 -32
l-23 -25 25 7 c14 4 45 16 70 26 44 20 43 18 -55 -80 -120 -122 -181 -164
-261 -184 -33 -9 -87 -27 -118 -41 -73 -33 -116 -35 -109 -6 3 11 0 26 -6 34
-9 10 -8 16 4 26 23 19 18 27 -21 40 -35 12 -120 9 -178 -6 -21 -5 -28 3 -66
71 -34 62 -40 79 -29 86 8 5 17 9 21 9 4 0 9 8 12 18 4 10 21 35 39 55 l34 36
47 -14 c57 -17 157 -23 208 -12 31 6 37 5 40 -10 5 -27 99 75 139 151 18 33
50 79 71 102 62 67 146 301 155 432 4 55 10 76 23 85 12 7 15 16 10 26 -14 29
-30 87 -30 110 0 37 25 73 107 152 86 83 150 130 219 160 79 35 38 37 -60 3
-109 -38 -147 -56 -196 -92 l-34 -26 24 39 c13 22 52 79 87 128 34 48 63 92
63 97 0 22 -89 -37 -152 -101 -47 -47 -78 -91 -105 -147 -34 -70 -41 -78 -51
-62 -9 14 -21 17 -61 15 -103 -7 -165 34 -202 136 -27 73 -55 98 -154 138
-141 58 -227 119 -280 199 -15 23 -31 39 -36 36 -14 -8 -10 -71 6 -111 18 -43
18 -40 1 -46 -10 -4 -23 9 -39 36 -36 60 -74 94 -89 79 -9 -9 -7 -22 9 -55 12
-24 19 -54 16 -68 -4 -24 -9 -22 -161 78 -221 145 -247 153 -525 153 -309 0
-479 -27 -624 -96 -91 -43 -132 -103 -52 -75 46 16 57 14 29 -5 -85 -57 -150
-146 -150 -206 0 -72 41 -77 60 -7 17 64 112 152 239 224 57 32 127 65 155 72
29 8 137 15 256 19 113 3 224 9 247 15 33 7 55 5 105 -11 68 -21 258 -137 363
-222 48 -39 67 -48 98 -48 21 0 47 -5 58 -11 15 -7 24 -7 34 1 11 9 16 6 27
-12 7 -13 13 -27 14 -33 0 -5 6 -30 13 -53 13 -48 8 -88 -19 -142 -27 -53 -50
-68 -131 -91 -181 -49 -259 -88 -259 -129 0 -30 40 -34 117 -12 46 12 77 16
97 11 17 -5 37 -4 48 2 10 5 23 7 29 4 5 -4 21 1 35 10 72 47 19 -49 -86 -155
-66 -67 -101 -94 -155 -120 -118 -55 -266 -100 -331 -100 -64 -1 -140 -13
-152 -24 -4 -4 2 -12 12 -18 15 -8 16 -12 5 -19 -27 -16 1 -20 78 -10 128 17
193 20 193 10 0 -5 15 -9 34 -9 57 0 182 -27 225 -50 34 -17 41 -25 41 -50 0
-19 10 -40 31 -61 30 -30 35 -59 12 -66 -6 -2 -14 4 -16 14 -3 10 -5 0 -4 -22
2 -45 30 -62 42 -25 11 35 27 10 24 -38 -3 -38 0 -47 14 -50 14 -3 16 -10 11
-40 -4 -20 -11 -42 -16 -49 -6 -7 -7 -39 -3 -76 7 -66 -6 -130 -40 -198 -9
-19 -70 -86 -135 -150 -98 -95 -120 -122 -125 -153 -6 -31 -4 -42 13 -58 19
-19 24 -20 52 -8 39 16 165 15 239 -3 52 -12 56 -15 98 -82 37 -60 43 -77 43
-123 0 -48 -2 -53 -17 -47 -47 19 -91 17 -112 -4 -42 -42 -11 -101 53 -101 19
0 46 -4 60 -9 23 -10 24 -12 13 -48 -14 -43 -17 -520 -4 -565 9 -34 41 -37 58
-6 8 14 15 114 21 268 11 303 13 314 56 318 18 2 32 7 32 12 0 4 -16 22 -35
39 -30 26 -34 34 -25 50 5 11 10 40 10 66 0 42 2 45 23 41 12 -3 58 -10 102
-16 143 -20 307 -50 438 -81 l129 -31 -30 -18 c-40 -24 -68 -66 -98 -147 -42
-110 -65 -235 -65 -352 -1 -142 23 -201 81 -201 44 0 56 23 35 67 -24 51 -17
263 13 379 28 105 51 159 63 147 22 -22 49 -169 49 -265 0 -114 -20 -188 -76
-275 -39 -61 -41 -96 -7 -101 33 -5 61 15 94 66 29 45 29 46 29 16 0 -35 16
-54 45 -54 30 0 48 23 94 120 96 205 134 470 67 470 -25 0 -38 -29 -57 -127
-21 -109 -38 -165 -81 -271 -35 -83 -55 -84 -33 -2 40 150 -6 438 -82 514 -14
14 -23 26 -20 26 13 0 187 -65 249 -92 79 -36 77 -29 85 -234 6 -164 -5 -274
-38 -383 -26 -86 -25 -117 5 -136 46 -30 58 -11 124 192 77 236 92 295 92 355
0 52 1 53 31 38 42 -23 15 3 -43 40 -67 44 -106 56 -45 14 l38 -25 -22 -37
c-34 -57 -36 -57 -44 10 -12 92 -13 98 -7 98 2 0 40 -19 82 -41 52 -28 77 -46
73 -56 -7 -17 15 -43 37 -43 14 0 17 -9 15 -52 -2 -57 -33 -126 -180 -398 -86
-159 -101 -200 -85 -230 14 -26 32 -25 57 3 27 29 222 383 259 469 16 38 31
68 35 68 10 0 -20 -169 -43 -245 -25 -79 -87 -175 -182 -285 -67 -76 -84 -120
-48 -120 10 0 22 3 26 7 9 10 66 13 66 4 0 -3 -43 -59 -95 -124 -52 -65 -98
-129 -101 -143 -9 -36 9 -51 41 -36 21 10 30 9 52 -5 l26 -18 -31 -6 c-38 -8
-62 -26 -62 -47 0 -12 10 -14 55 -8 35 4 55 2 55 -4 0 -6 11 -15 25 -20 14 -5
25 -14 25 -20 0 -22 46 -8 95 29 130 98 300 279 394 420 106 156 161 317 116
335 -25 9 -42 -9 -81 -86 -48 -95 -107 -190 -173 -277 -62 -83 -208 -241 -252
-272 l-28 -20 -71 36 -71 36 33 40 c119 147 165 220 230 371 38 89 47 132 28
143 -6 4 0 25 14 53 13 27 32 71 41 99 l17 51 86 -55 c48 -30 106 -68 129 -85
48 -33 63 -30 63 10 0 41 -21 64 -123 136 -90 63 -242 216 -235 236 4 13 164
-107 293 -220 55 -48 111 -92 124 -99 30 -17 44 -3 35 35 -9 38 -257 285 -346
344 -82 55 -90 76 -17 46 22 -10 102 116 190 298 244 507 425 1186 469 1755
24 317 6 808 -40 1088 -50 298 -131 608 -211 800 -55 132 -165 352 -227 451
-28 44 -54 91 -57 104 -4 13 -23 61 -42 107 -37 93 -92 167 -344 457 -120 139
-155 173 -247 237 -159 111 -356 233 -647 399 -383 219 -506 277 -705 332
-322 88 -451 114 -650 131 -41 4 -131 15 -200 26 -149 24 -357 30 -612 19z
m457 -129 c432 -22 630 -63 1045 -221 166 -63 573 -256 704 -335 54 -32 134
-86 179 -121 45 -35 116 -87 157 -116 276 -191 562 -493 727 -768 77 -130 270
-514 294 -589 12 -36 42 -117 66 -180 71 -179 107 -344 137 -616 8 -71 26
-190 40 -262 78 -405 87 -854 25 -1228 -86 -518 -344 -1126 -631 -1485 -33
-41 -55 -76 -49 -78 24 -8 9 -22 -25 -22 -22 0 -47 9 -67 24 -43 32 -136 77
-230 111 l-78 28 19 21 c172 192 288 378 427 686 209 463 241 599 285 1205 4
62 4 141 -1 180 -5 39 -14 160 -19 270 -14 310 -50 516 -129 732 -21 60 -55
161 -75 225 -47 149 -94 263 -152 364 -26 43 -67 117 -91 164 -58 109 -153
255 -231 351 -77 95 -234 246 -337 324 -44 33 -110 88 -147 122 -37 34 -122
98 -190 143 -111 74 -202 121 -623 327 -127 61 -403 159 -575 203 -227 58
-627 86 -875 61 -240 -24 -637 -113 -814 -182 -46 -18 -99 -31 -136 -33 -122
-6 -246 -55 -365 -145 -47 -35 -146 -104 -220 -154 -174 -116 -298 -204 -334
-236 -15 -14 -104 -123 -197 -241 -93 -118 -199 -251 -235 -295 -125 -152
-300 -427 -402 -634 -53 -108 -107 -211 -119 -230 -49 -73 -90 -248 -112 -481
-20 -200 -31 -714 -21 -889 17 -264 63 -544 125 -759 19 -64 22 -89 13 -99 -7
-9 -9 -41 -5 -91 9 -145 120 -428 234 -602 27 -41 72 -114 99 -162 27 -48 73
-117 101 -153 29 -36 53 -67 53 -70 0 -2 -32 -14 -70 -25 -57 -17 -164 -58
-306 -116 -15 -7 -142 171 -198 277 -90 169 -201 467 -335 899 -114 365 -160
611 -166 870 -1 80 -11 225 -20 323 -17 168 -17 187 -1 346 21 210 64 511 75
525 5 6 12 27 16 46 95 448 423 1147 729 1554 96 127 194 224 316 312 47 34
139 109 205 168 116 102 233 191 330 249 26 15 49 36 52 47 4 15 29 27 99 50
52 16 100 30 108 30 7 0 37 14 67 30 134 75 950 299 1254 345 178 26 186 27
600 6z m75 -611 c19 -5 102 -19 185 -31 240 -32 469 -85 441 -101 -25 -14 -19
-42 15 -62 52 -31 99 -77 120 -118 22 -44 34 -115 25 -152 -18 -71 -120 -136
-218 -136 -51 0 -61 4 -110 42 -29 23 -109 98 -178 168 -128 131 -180 170
-310 235 -73 37 -77 37 -155 32 -87 -7 -176 -32 -252 -71 -93 -47 -146 -43
-225 17 -102 77 -316 84 -448 17 -67 -34 -138 -107 -206 -212 -35 -53 -83
-115 -106 -138 -85 -81 -218 -121 -287 -85 -35 17 -64 70 -76 137 -9 46 -10
45 240 168 414 205 820 292 1380 299 72 0 146 -3 165 -9z m-1637 -181 c-158
-92 -225 -264 -149 -380 31 -46 82 -70 162 -77 55 -4 70 -1 116 23 103 53 172
127 223 238 32 68 101 134 183 174 74 37 79 38 188 38 123 0 146 -9 189 -71
19 -28 21 -29 38 -11 15 15 16 21 5 34 -15 19 -11 17 61 -20 29 -16 59 -26 66
-23 28 10 23 -9 -11 -51 -68 -82 -74 -231 -11 -234 7 0 23 -14 36 -30 l23 -30
-28 7 c-63 14 -101 60 -113 134 -7 39 -38 52 -61 25 -17 -20 -54 -20 -46 0 3
8 -17 -3 -45 -25 -69 -54 -243 -140 -284 -140 -39 0 -134 -48 -184 -93 -80
-71 -188 -146 -229 -158 -62 -18 -209 2 -274 38 -67 37 -128 91 -144 128 -7
17 -16 65 -20 106 -16 184 63 302 268 399 82 39 108 38 41 -1z m1578 -3 c109
-34 171 -78 337 -239 165 -161 193 -182 241 -189 41 -6 180 15 212 32 53 29
96 123 86 188 -9 55 -52 133 -98 180 -23 23 -39 42 -35 42 32 0 183 -104 214
-147 54 -76 80 -263 48 -347 -39 -103 -165 -181 -309 -192 -60 -5 -91 -1 -192
26 -66 17 -144 42 -174 55 -71 33 -174 107 -196 142 -52 82 -207 203 -260 203
-22 0 -19 -12 20 -90 19 -38 35 -74 35 -80 0 -15 -205 -12 -265 4 -66 17 -102
37 -149 80 -43 40 -43 41 -10 154 26 90 81 132 234 178 97 29 167 29 261 0z
m1025 -66 c77 -38 166 -90 199 -115 33 -25 116 -78 185 -117 170 -96 340 -208
370 -244 14 -16 59 -56 100 -88 187 -148 364 -345 455 -506 27 -47 86 -141
131 -210 97 -147 132 -212 140 -260 4 -19 17 -44 29 -56 22 -20 73 -160 96
-259 29 -131 75 -437 93 -620 35 -357 46 -1050 19 -1130 -6 -16 -23 -82 -39
-145 -39 -163 -126 -416 -188 -545 -101 -212 -297 -533 -390 -642 l-36 -41
-54 14 c-29 8 -165 34 -302 59 -137 25 -308 59 -380 75 -73 17 -134 30 -138
30 -3 0 -13 17 -21 38 -9 20 -29 54 -45 74 -17 20 -30 42 -30 49 0 7 -6 20
-14 28 -8 9 -19 34 -25 56 -9 35 -8 42 9 59 17 17 21 18 41 4 13 -8 28 -32 34
-54 17 -61 47 -71 153 -50 116 23 211 65 311 137 70 50 88 59 112 54 59 -13
92 19 64 62 -15 22 -14 26 23 71 22 26 48 63 57 82 20 41 398 425 435 443 17
8 25 21 25 37 0 35 12 50 52 66 30 13 42 31 104 156 38 77 81 178 95 224 14
46 31 82 36 81 6 -1 16 15 24 36 24 67 26 128 10 207 -9 41 -16 85 -16 97 0
12 -8 28 -18 35 -10 7 -31 36 -47 63 -16 28 -74 97 -130 155 -56 58 -139 150
-185 205 -47 57 -101 110 -124 123 -65 37 -118 85 -161 145 -22 31 -49 59 -60
62 -12 4 -27 16 -35 28 -41 67 -213 287 -245 316 -21 18 -79 52 -130 76 -74
34 -111 45 -188 54 -139 16 -308 14 -366 -5 -38 -12 -53 -13 -77 -3 -16 7 -56
22 -89 34 -33 12 -59 26 -58 31 1 5 4 16 8 25 4 12 -5 20 -40 34 -26 9 -49 23
-51 30 -3 6 2 32 10 56 9 24 16 51 16 60 0 32 -31 117 -57 155 -34 50 -46 111
-27 138 8 11 14 42 14 68 0 49 -35 158 -50 158 -14 0 -37 50 -45 98 l-7 42 46
0 c26 0 54 4 64 9 9 6 42 18 72 27 79 24 180 77 212 111 38 40 58 104 58 188
0 148 -39 243 -142 346 -27 27 -45 49 -40 49 5 0 72 -31 148 -70z m-1652 -237
c2 -10 7 -44 11 -76 9 -80 30 -125 63 -138 17 -7 66 -8 132 -4 69 5 121 3 148
-5 42 -11 87 -6 78 9 -13 20 -120 34 -224 28 -60 -3 -113 -2 -119 1 -11 7 -46
72 -39 72 2 0 21 -7 42 -16 22 -9 54 -14 78 -11 25 2 64 -3 99 -15 91 -29 201
-34 291 -13 l76 18 51 -32 c28 -17 54 -31 59 -31 18 0 21 -21 7 -43 -8 -12
-30 -39 -50 -59 -32 -35 -67 -118 -67 -161 0 -21 38 -10 45 13 3 9 23 25 44
35 44 20 86 84 83 127 -4 44 24 35 32 -9 14 -88 8 -119 -45 -220 -51 -96 -52
-98 -60 -220 -10 -133 -32 -213 -109 -387 -62 -138 -62 -139 -115 -174 l-49
-33 -16 44 c-9 24 -26 57 -38 73 -14 18 -28 62 -37 119 -9 49 -31 126 -49 170
-33 83 -121 228 -156 260 -11 10 -20 29 -20 42 0 21 55 143 64 143 3 0 11 3
19 6 26 10 7 -46 -24 -69 -30 -22 -39 -47 -16 -47 7 0 18 5 25 12 9 9 12 7 12
-10 0 -16 9 -24 38 -31 72 -21 218 -6 252 24 23 21 30 19 30 -10 0 -32 28 -23
37 13 5 21 -1 32 -31 59 -24 22 -43 32 -54 28 -9 -3 -59 -10 -111 -15 -83 -8
-98 -7 -108 7 -10 12 -9 22 2 44 18 34 83 56 191 66 66 5 72 4 87 -18 19 -27
33 -20 18 9 -14 27 -41 35 -120 34 l-66 -1 70 28 c96 38 149 71 136 84 -7 7
-17 5 -33 -5 -13 -8 -75 -34 -138 -57 -182 -67 -200 -78 -245 -148 -22 -33
-45 -69 -52 -80 -10 -15 -11 -13 -6 17 3 19 12 46 19 61 13 27 84 95 127 124
29 18 38 51 12 41 -8 -3 -44 -29 -80 -57 -86 -69 -109 -116 -103 -207 4 -62 7
-70 46 -112 49 -52 97 -140 107 -193 6 -30 4 -36 -7 -32 -11 5 -12 -9 -7 -84
8 -90 27 -147 55 -158 24 -9 29 5 9 27 -23 26 -5 26 28 0 13 -11 28 -34 31
-52 4 -18 20 -51 36 -72 19 -25 30 -52 30 -72 0 -44 -34 -119 -85 -184 -23
-30 -54 -78 -68 -107 -15 -28 -31 -54 -37 -58 -5 -3 -30 3 -55 14 -36 16 -45
25 -45 45 0 14 4 27 9 31 13 8 25 89 17 120 -5 19 -21 32 -64 51 -31 14 -66
33 -77 43 -11 10 -37 27 -58 38 l-39 19 30 32 c17 18 39 32 50 32 21 0 39 17
29 26 -15 15 -97 -22 -142 -65 -27 -26 -65 -53 -83 -60 -32 -13 -35 -13 -62
15 -16 16 -37 45 -47 64 -14 24 -28 36 -46 38 -33 4 -34 0 -2 -32 41 -41 33
-51 -40 -51 l-65 0 0 76 c0 178 49 328 174 538 47 81 56 102 56 144 0 51 -13
87 -32 87 -6 0 -25 16 -42 35 -17 19 -62 57 -100 83 -38 26 -74 54 -79 63 -14
22 -2 62 29 99 38 44 73 60 114 51 l35 -8 -37 -17 c-21 -9 -44 -16 -53 -16
-19 0 -20 -29 -1 -36 7 -3 42 5 77 16 48 17 78 21 119 17 60 -7 80 -23 80 -68
0 -44 39 -157 65 -186 29 -35 45 -22 22 19 -9 16 -26 71 -37 120 -13 58 -29
103 -45 124 -45 58 -31 125 37 172 50 35 65 38 72 15z m606 -95 c0 -5 -4 -8
-8 -8 -8 0 -62 104 -62 118 1 9 69 -100 70 -110z m335 -275 c4 -16 11 -48 16
-73 8 -34 8 -45 -2 -49 -26 -8 -113 -98 -148 -151 -24 -38 -36 -50 -39 -38 -4
18 15 62 73 168 19 36 35 74 35 85 0 24 36 85 50 85 5 0 12 -12 15 -27z
m-1263 -100 l68 -58 -6 -55 c-10 -93 -32 -110 -146 -114 l-43 -1 1 -55 c1 -54
1 -54 -12 -25 -15 33 -18 123 -6 143 7 10 15 10 36 2 59 -22 156 -4 156 30 0
10 -4 30 -10 44 -9 24 -14 26 -77 26 -92 0 -97 5 -89 76 6 53 5 57 -8 40 -17
-20 -36 -14 -36 13 0 57 54 37 172 -66z m1510 62 c11 -4 19 -24 23 -58 4 -29
12 -61 17 -72 6 -14 2 -12 -14 6 -13 15 -51 59 -86 98 l-64 70 54 -18 c29 -11
60 -22 70 -26z m-1659 -123 c5 -47 4 -52 -8 -42 -15 12 -21 81 -8 93 9 10 9 8
16 -51z m1576 -6 c87 -24 104 -49 147 -216 14 -57 39 -137 55 -177 16 -41 29
-78 29 -83 0 -5 -20 4 -45 21 -32 21 -83 40 -168 61 -136 33 -186 58 -241 119
-36 39 -38 44 -31 88 4 25 17 66 31 90 13 24 22 47 19 51 -3 5 9 20 26 34 36
31 92 34 178 12z m-604 -26 c0 -7 -6 -15 -12 -17 -8 -3 -13 4 -13 17 0 13 5
20 13 18 6 -3 12 -11 12 -18z m-922 -20 c3 -14 1 -20 -6 -17 -7 2 -14 14 -15
26 -4 28 13 20 21 -9z m-127 -45 c-41 -69 -51 -64 -15 7 18 34 34 57 36 50 3
-7 -7 -32 -21 -57z m854 56 c0 -5 3 -16 6 -25 7 -18 -4 -20 -25 -7 -8 5 -11
16 -8 25 7 17 27 22 27 7z m979 -55 c12 -23 21 -58 20 -77 -1 -34 -1 -34 -13
11 -7 25 -23 65 -36 90 -16 32 -18 41 -7 32 9 -8 25 -33 36 -56z m-1589 34 c0
-5 -4 -10 -10 -10 -5 0 -10 5 -10 10 0 6 5 10 10 10 6 0 10 -4 10 -10z m-181
-214 c8 -9 20 -15 28 -12 15 6 16 -31 3 -74 -7 -24 -8 -22 -30 25 -16 34 -24
73 -26 120 -2 67 -2 68 4 14 4 -31 13 -64 21 -73z m-57 43 c1 -28 -1 -54 -7
-59 -5 -4 -30 -13 -55 -20 -59 -16 -119 -46 -152 -78 -40 -37 -37 -54 10 -46
31 4 47 -1 96 -30 56 -35 104 -53 156 -59 16 -1 24 -8 21 -17 -1 -8 -5 -41 -8
-72 -6 -58 -6 -58 -39 -58 -18 0 -36 -4 -39 -10 -3 -5 -27 -10 -51 -10 -45 0
-46 0 -39 29 10 48 -9 71 -58 71 -33 0 -51 -7 -80 -31 -32 -27 -40 -29 -54
-17 -9 7 -22 27 -29 44 -26 62 16 138 130 236 39 33 83 80 98 105 20 35 27 41
30 27 3 -16 7 -14 28 14 13 17 27 32 31 32 4 0 9 -23 11 -51z m219 24 c-5 -10
-17 -27 -26 -38 -15 -18 -16 -18 -11 -2 3 10 6 27 6 38 0 12 7 19 20 19 17 0
19 -3 11 -17z m-71 -40 c0 -53 -14 -48 -24 10 -6 30 -4 37 9 37 11 0 15 -11
15 -47z m1232 -228 c46 -72 130 -134 165 -121 8 3 18 -4 23 -17 12 -28 29
-139 23 -149 -2 -5 -34 -8 -70 -8 -85 0 -162 34 -198 88 -47 72 -53 153 -23
324 l12 67 21 -72 c12 -40 33 -90 47 -112z m-504 -57 c6 -46 -7 -49 -41 -9
-27 33 -42 103 -31 147 7 28 9 27 37 -36 16 -36 32 -82 35 -102z m982 26 c36
-33 40 -41 40 -86 0 -54 -15 -91 -53 -127 l-25 -23 -16 30 c-19 38 -62 72 -89
72 -28 0 -57 -29 -57 -57 0 -13 12 -35 26 -48 30 -28 27 -30 -28 -13 -26 8
-40 18 -42 32 -18 100 -28 149 -32 164 -4 11 2 8 14 -8 46 -55 180 -7 197 71
4 16 11 29 16 29 5 0 27 -16 49 -36z m-1993 -130 c4 -12 -9 -30 -47 -63 -59
-51 -80 -90 -80 -152 0 -38 2 -41 23 -35 12 3 40 6 61 6 34 0 46 6 83 46 23
26 50 64 60 85 20 46 53 54 53 13 0 -38 -28 -90 -66 -124 -48 -42 -127 -80
-166 -80 -44 0 -96 33 -104 65 -22 88 74 255 146 255 19 0 33 -6 37 -16z
m1898 -67 c21 -21 40 -57 56 -105 21 -67 22 -77 11 -145 -19 -108 -55 -147
-107 -113 -41 27 -68 92 -73 179 -4 73 -4 77 17 77 18 0 21 -6 21 -44 0 -27 9
-61 25 -91 15 -27 23 -55 20 -66 -9 -26 21 -25 35 0 15 28 12 166 -4 204 -7
18 -28 45 -45 61 -29 28 -39 55 -24 69 14 14 36 6 68 -26z m-1702 -69 c-2 -5
-8 -8 -14 -8 -11 0 -12 53 -1 64 7 8 21 -44 15 -56z m-113 45 c0 -26 -49 -71
-99 -91 -31 -13 -62 -25 -68 -29 -16 -7 -17 30 -2 60 28 54 50 67 111 67 32 0
58 -3 58 -7z m1977 -108 c72 -50 97 -85 91 -125 -5 -34 -104 -108 -155 -116
l-42 -6 20 51 c21 56 26 163 10 219 -12 39 -15 40 76 -23z m-172 -56 c4 -28 4
-53 1 -56 -15 -15 -30 21 -33 79 -4 57 -3 61 11 45 8 -10 17 -41 21 -68z
m-1514 46 c53 -24 55 -24 128 -9 84 17 120 14 171 -18 l35 -21 -31 -13 c-18
-7 -60 -18 -94 -23 -34 -6 -68 -15 -76 -22 -24 -20 -16 -59 17 -90 26 -24 40
-29 80 -29 58 0 95 28 132 99 28 54 44 61 57 26 23 -61 6 -135 -31 -135 -12 0
-32 -9 -46 -20 -24 -18 -24 -20 -5 -20 11 0 22 -7 25 -15 5 -11 0 -13 -26 -9
-133 24 -167 43 -213 117 -45 75 -43 72 -50 65 -3 -4 2 -20 10 -37 19 -35 21
-77 4 -87 -20 -13 -98 -6 -123 10 -15 10 -29 35 -39 71 -11 35 -25 60 -41 71
-14 9 -21 22 -18 30 3 9 -1 14 -11 14 -30 0 -28 -28 7 -83 l35 -54 -36 -11
c-41 -13 -54 -6 -78 39 -23 45 -18 92 14 121 72 66 116 73 203 33z m4243 -170
c4 -20 3 -25 -3 -15 -5 8 -11 31 -15 50 -7 41 7 13 18 -35z m-2528 -115 c-3
-11 -9 -29 -12 -41 -5 -15 -1 -22 15 -26 26 -7 27 -19 2 -33 -24 -12 -71 -13
-71 -1 0 5 -18 12 -39 16 -26 4 -41 13 -44 25 -4 15 9 24 67 49 85 36 90 37
82 11z m-1739 2 c7 -4 -12 -8 -42 -9 -30 -1 -55 3 -55 8 0 11 80 12 97 1z
m188 -7 l40 -14 -35 0 c-46 -1 -81 9 -74 20 7 12 22 11 69 -6z m-75 -30 c44
-12 73 -13 143 -5 49 6 93 7 99 4 6 -4 27 -7 47 -8 27 -1 39 -7 50 -28 14 -24
14 -28 -4 -48 -10 -11 -48 -35 -84 -53 -62 -30 -72 -32 -197 -35 l-132 -4 -69
36 c-60 30 -71 39 -77 67 -7 36 17 84 38 76 10 -4 90 4 126 12 3 0 30 -6 60
-14z m1690 -50 c-7 -8 -16 -15 -21 -15 -5 0 -6 7 -3 15 4 8 13 15 21 15 13 0
13 -3 3 -15z m759 -979 c29 -20 76 -43 106 -52 50 -16 55 -20 55 -46 0 -19 5
-28 15 -28 9 0 27 -11 41 -25 23 -23 24 -30 19 -92 -22 -254 -26 -276 -61
-352 -38 -82 -141 -241 -202 -310 -34 -39 -44 -44 -91 -49 -36 -3 -63 0 -89
12 -30 13 -62 16 -155 14 -116 -3 -118 -3 -124 20 -7 31 13 158 32 197 8 17
29 79 47 139 31 105 33 110 87 155 99 84 179 162 206 201 21 31 28 56 35 132
5 51 10 101 10 111 0 10 4 16 8 13 5 -3 32 -21 61 -40z m-3444 -189 c25 -85
103 -205 186 -287 64 -62 70 -76 72 -163 2 -52 10 -77 49 -157 44 -89 53 -119
26 -92 -17 17 -54 15 -84 -4 -19 -13 -30 -14 -48 -6 -47 21 -164 178 -187 251
-6 20 -20 44 -29 53 -15 14 -130 341 -130 368 0 34 102 131 119 114 3 -3 14
-37 26 -77z m450 -597 c7 0 21 7 29 15 14 14 21 14 68 -7 56 -24 77 -45 145
-142 38 -54 40 -62 25 -70 -9 -5 -30 -20 -46 -34 -27 -21 -31 -22 -42 -8 -6 9
-17 16 -23 16 -20 0 -121 69 -128 88 -4 9 -16 31 -29 47 -12 17 -36 59 -54 95
l-32 64 36 -32 c20 -18 43 -32 51 -32z m-1935 -1605 c-16 -19 -6 -19 48 2 59
22 72 6 25 -32 -28 -22 -48 -29 -84 -30 -54 -1 -161 -50 -215 -97 -27 -24 -40
-29 -60 -24 -15 4 -24 10 -20 13 12 13 311 190 315 187 2 -2 -2 -10 -9 -19z
m5 -415 c58 -146 126 -279 221 -432 l24 -37 -30 -21 -30 -21 -66 138 c-112
233 -162 349 -194 448 -35 110 -37 130 -13 144 15 8 19 0 34 -57 9 -37 34
-110 54 -162z m511 -481 c-73 -37 -145 -89 -184 -133 -32 -36 -72 -56 -72 -35
0 7 11 27 25 45 14 18 25 42 25 52 0 17 20 27 118 60 140 48 168 52 88 11z
m-298 -271 c-11 -32 -12 -32 -22 -9 -7 17 -6 25 5 32 24 15 28 10 17 -23z"/>
<path d="M3252 6388 c3 -7 22 -15 42 -18 33 -4 41 -11 59 -49 21 -42 50 -71
61 -60 3 3 -9 34 -27 69 l-32 65 -54 3 c-40 2 -52 0 -49 -10z"/>
<path d="M4134 6059 c-16 -20 -45 -110 -38 -120 7 -13 24 -11 24 2 0 6 14 27
30 46 33 37 38 53 16 53 -8 0 -16 7 -18 17 -2 14 -5 14 -14 2z"/>
<path d="M4215 6044 c-4 -10 -13 -34 -21 -52 -19 -45 -18 -82 7 -164 13 -43
19 -82 16 -104 -5 -29 -3 -35 11 -32 26 5 27 69 2 161 -22 79 -22 82 -4 134
14 40 15 56 6 65 -9 9 -13 7 -17 -8z"/>
<path d="M3900 5996 c0 -19 39 -43 84 -51 42 -8 38 10 40 -205 1 -134 4 -161
21 -195 11 -22 28 -41 37 -43 16 -3 15 2 -4 45 -19 40 -23 69 -25 181 -2 74 1
132 6 132 5 0 21 -14 36 -32 24 -28 26 -37 21 -87 -17 -162 -17 -187 -6 -216
16 -39 17 -33 26 110 6 96 9 113 16 85 4 -19 7 -60 6 -90 -1 -30 3 -57 8 -60
14 -8 17 159 4 205 -19 64 -52 135 -62 135 -6 0 -7 -7 -4 -15 18 -45 16 -47
-12 -12 -17 21 -34 48 -38 60 -9 29 -22 37 -62 37 -18 0 -46 7 -62 15 -25 13
-30 13 -30 1z"/>
<path d="M3795 5734 c-6 -133 -3 -266 11 -429 1 -16 3 -57 3 -89 1 -47 4 -57
13 -48 8 8 12 45 12 105 0 117 -22 609 -28 614 -2 2 -7 -67 -11 -153z"/>
<path d="M5015 5230 c47 -55 48 -56 37 -35 -6 11 -23 31 -39 45 l-28 25 30
-35z"/>
<path d="M5245 4840 c-7 -11 10 -79 26 -100 9 -13 10 -12 5 3 -3 10 -6 39 -6
63 0 41 -11 57 -25 34z"/>
<path d="M5174 4425 c21 -16 32 -13 21 4 -3 6 -14 11 -23 11 -15 -1 -15 -2 2
-15z"/>
<path d="M3765 4329 c-11 -17 1 -21 15 -4 8 9 8 15 2 15 -6 0 -14 -5 -17 -11z"/>
<path d="M3786 3707 c25 -48 102 -129 154 -159 25 -14 74 -34 109 -43 36 -9
82 -25 103 -36 40 -20 83 -26 73 -9 -3 6 2 10 11 10 16 0 16 1 1 18 -28 31
-289 151 -346 160 -23 3 -49 19 -78 48 -42 42 -43 43 -27 11z"/>
<path d="M3620 3260 c0 -10 5 -43 11 -72 12 -54 35 -93 121 -206 l48 -63 0 44
c0 41 -4 48 -45 81 -53 44 -87 99 -110 179 -17 59 -25 71 -25 37z"/>
<path d="M4860 3005 c-30 -31 -73 -64 -95 -75 -48 -23 -153 -28 -237 -11 -51
10 -66 9 -137 -12 -64 -18 -92 -22 -138 -16 -32 4 -86 8 -120 8 -55 1 -63 -1
-63 -17 0 -49 147 -65 289 -33 233 53 384 42 447 -31 26 -31 28 -56 13 -143
-3 -16 2 -21 27 -23 43 -4 84 44 84 99 0 26 4 39 13 39 8 0 30 18 50 40 19 22
45 40 56 40 22 0 121 95 121 116 0 21 -11 17 -47 -18 -31 -30 -33 -31 -33 -10
0 45 -31 38 -84 -20 -82 -89 -81 -89 -80 5 1 124 -2 127 -66 62z"/>
<path d="M3667 2506 c-7 -19 3 -239 11 -247 4 -4 42 -5 84 -2 l77 6 -1 30 c-1
22 -22 57 -80 129 -44 54 -81 98 -83 98 -1 0 -5 -6 -8 -14z"/>
<path d="M4243 2120 c-12 -5 -26 -22 -30 -37 -4 -15 -8 -170 -8 -343 0 -353 6
-394 53 -388 36 4 44 41 36 178 l-6 115 33 12 c18 7 36 9 40 5 10 -10 51 -213
45 -220 -3 -3 -12 1 -21 8 -22 19 -20 -7 5 -47 33 -54 100 -34 100 29 0 65
-51 305 -111 524 -39 143 -76 188 -136 164z m101 -371 c5 -26 4 -26 -23 -16
-25 9 -29 17 -35 61 -3 28 -5 87 -5 131 l1 80 28 -115 c16 -63 31 -127 34
-141z"/>
<path d="M4984 2043 c-19 -33 -46 -105 -61 -160 -24 -88 -26 -117 -27 -285
l-1 -187 -25 7 c-14 4 -69 7 -122 7 l-97 0 7 45 c12 75 7 369 -7 463 -15 99
-38 140 -68 121 -21 -13 -22 -44 -8 -339 5 -125 4 -207 -4 -268 -14 -107 -7
-123 49 -112 19 3 85 12 145 20 61 7 118 16 128 20 11 5 17 2 17 -8 0 -22 39
-67 60 -67 36 0 41 22 29 121 -6 52 -9 111 -7 132 3 37 4 35 46 -61 23 -54 59
-118 78 -141 32 -37 41 -42 73 -39 60 5 66 30 52 227 -16 220 -57 496 -82 543
-7 12 -26 17 -75 20 l-66 3 -34 -62z m120 -141 c8 -48 17 -105 20 -127 l5 -40
-64 0 c-64 0 -65 0 -65 28 0 46 30 179 52 227 19 42 21 43 29 22 4 -12 15 -61
23 -110z m44 -412 l-3 -55 -42 86 c-24 47 -43 90 -43 95 0 6 17 15 38 20 l37
9 8 -50 c4 -27 6 -75 5 -105z"/>
<path d="M5735 1965 c-29 -28 -31 -38 -8 -60 11 -12 29 -16 60 -13 47 3 48 2
32 -39 -8 -18 -11 -100 -10 -237 2 -247 -4 -276 -55 -276 -25 0 -38 -6 -49
-24 -23 -34 -6 -63 42 -72 45 -8 177 1 221 17 60 21 43 35 -84 74 -8 2 -8 18
2 57 10 37 14 110 13 248 -1 107 2 220 6 251 7 53 5 57 -20 78 -40 31 -117 29
-150 -4z"/>
<path d="M3495 1755 c-33 -32 -35 -110 -4 -149 23 -29 41 -33 62 -11 12 12 21
12 46 4 23 -8 44 -8 79 1 80 20 82 31 10 56 -37 14 -69 33 -78 46 -22 34 -67
78 -80 78 -6 0 -22 -11 -35 -25z"/>
<path d="M1626 1715 c-60 -60 62 -480 177 -611 54 -62 84 -59 110 10 17 47 17
54 2 130 -30 149 -124 361 -194 436 -43 46 -73 57 -95 35z m98 -187 c66 -143
91 -217 78 -230 -13 -13 -58 79 -97 197 -50 153 -42 166 19 33z"/>
<path d="M1389 1637 c-28 -19 -35 -30 -37 -64 -2 -30 3 -50 17 -70 28 -39 96
-212 122 -313 30 -115 59 -148 80 -92 13 32 -7 146 -47 272 l-25 80 26 43 c39
68 33 127 -16 152 -40 21 -81 18 -120 -8z"/>
<path d="M652 1208 c7 -19 38 -22 38 -4 0 10 -9 16 -21 16 -12 0 -19 -5 -17
-12z"/>
<path d="M4220 1190 c-323 -21 -709 -72 -774 -101 -26 -12 -26 -14 -10 -26 24
-18 163 -17 474 4 369 24 930 22 1355 -5 182 -12 454 -27 605 -33 l275 -12
167 -73 c171 -75 254 -104 295 -104 41 0 25 27 -44 73 -220 145 -529 268 -576
229 -13 -11 -218 -2 -772 33 -295 19 -813 27 -995 15z"/>
<path d="M3860 884 c-382 -34 -803 -94 -1585 -225 -519 -87 -744 -139 -874
-200 -94 -43 -146 -97 -108 -112 7 -3 53 11 103 30 124 49 360 103 464 108 47
1 168 17 270 34 567 93 1386 194 1795 221 195 13 697 11 580 -2 -115 -12 -189
-28 -178 -39 18 -18 257 -30 818 -39 813 -13 941 -27 1128 -122 72 -36 113
-35 109 2 -4 41 -30 68 -90 99 -80 40 -170 66 -298 86 -60 9 -129 23 -154 32
-25 8 -94 21 -155 28 -119 16 -711 50 -1105 65 -135 5 -267 14 -295 19 -54 11
-351 22 -425 15z"/>
<path d="M6504 475 c-9 -22 4 -35 36 -35 36 0 49 19 25 37 -25 17 -54 17 -61
-2z"/>
</g>
</svg>
